<?xml version="1.0" encoding="UTF-8"?>
<svg width="602px" height="93px" viewBox="0 0 602 93" version="1.1" xmlns="http://www.w3.org/2000/svg" xmlns:xlink="http://www.w3.org/1999/xlink">
    <!-- Generator: Sketch 61.2 (89653) - https://sketch.com -->
    <title>Adrastos</title>
    <desc>Created with Sketch.</desc>
    <g id="Page-1" stroke="none" stroke-width="1" fill="none" fill-rule="evenodd">
        <g id="index" transform="translate(-144.000000, -98.000000)" fill="#000000" fill-rule="nonzero">
            <path d="M171.89,188 L174.772,180.14 L201.234,180.14 L204.116,188 L231.626,188 L198.483,100.623 L177.523,100.623 L144.38,188 L171.89,188 Z M193.898,160.883 L182.108,160.883 L188.003,145.556 L193.898,160.883 Z M257.942964,188 C266.152298,188 273.466464,187.061167 279.885464,185.1835 C286.304464,183.305833 291.719131,180.533 296.129464,176.865 C300.539798,173.197 303.902131,168.633833 306.216464,163.1755 C308.530798,157.717167 309.687964,151.407333 309.687964,144.246 C309.687964,137.084667 308.530798,130.774833 306.216464,125.3165 C303.902131,119.858167 300.539798,115.295 296.129464,111.627 C291.719131,107.959 286.304464,105.208 279.885464,103.374 C273.466464,101.54 266.152298,100.623 257.942964,100.623 L257.942964,100.623 L233.707964,100.623 L233.707964,188 L257.942964,188 Z M261.610964,163.11 L261.610964,125.513 C268.160964,125.513 273.226298,127.041333 276.806964,130.098 C280.387631,133.154667 282.177964,137.870667 282.177964,144.246 C282.177964,150.621333 280.387631,155.359167 276.806964,158.4595 C273.226298,161.559833 268.160964,163.11 261.610964,163.11 L261.610964,163.11 Z M344.912929,188 L344.912929,165.861 L358.012929,188 L390.762929,188 L374.387929,159.18 C376.571262,157.608 378.536262,155.686667 380.282929,153.416 C381.767595,151.407333 383.121262,148.874667 384.343929,145.818 C385.566595,142.761333 386.177929,139.049667 386.177929,134.683 C386.177929,129.181 385.195429,124.312167 383.230429,120.0765 C381.265429,115.840833 378.536262,112.282 375.042929,109.4 C371.549595,106.518 367.423095,104.334667 362.663429,102.85 C357.903762,101.365333 352.729262,100.623 347.139929,100.623 L347.139929,100.623 L317.009929,100.623 L317.009929,188 L344.912929,188 Z M346.353929,143.591 L344.912929,143.591 L344.912929,124.203 L346.353929,124.203 C349.672595,124.203 352.489095,124.945333 354.803429,126.43 C357.117762,127.914667 358.274929,130.403667 358.274929,133.897 C358.274929,137.390333 357.117762,139.879333 354.803429,141.364 C352.489095,142.848667 349.672595,143.591 346.353929,143.591 L346.353929,143.591 Z M413.804893,188 L416.686893,180.14 L443.148893,180.14 L446.030893,188 L473.540893,188 L440.397893,100.623 L419.437893,100.623 L386.294893,188 L413.804893,188 Z M435.812893,160.883 L424.022893,160.883 L429.917893,145.556 L435.812893,160.883 Z M496.975857,190.227 C502.477857,190.227 507.237524,189.5065 511.254857,188.0655 C515.272191,186.6245 518.569024,184.6595 521.145357,182.1705 C523.721691,179.6815 525.621191,176.755833 526.843857,173.3935 C528.066524,170.031167 528.677857,166.428667 528.677857,162.586 C528.677857,158.918 528.088357,155.599333 526.909357,152.63 C525.730357,149.660667 524.289357,146.997 522.586357,144.639 C520.883357,142.281 519.005691,140.185 516.953357,138.351 C514.901024,136.517 513.023357,134.901333 511.320357,133.504 C509.617357,132.106667 508.176357,130.884 506.997357,129.836 C505.818357,128.788 505.228857,127.914667 505.228857,127.216 C505.228857,126.43 505.490857,125.818667 506.014857,125.382 C506.538857,124.945333 507.150191,124.639667 507.848857,124.465 C508.547524,124.290333 509.289857,124.181167 510.075857,124.1375 C510.861857,124.093833 511.516857,124.072 512.040857,124.072 C513.001524,124.072 513.918524,124.115667 514.791857,124.203 C515.665191,124.290333 516.451191,124.377667 517.149857,124.465 C518.023191,124.552333 518.809191,124.639667 519.507857,124.727 L519.507857,124.727 L519.507857,100.23 C517.673857,99.968 515.796191,99.706 513.874857,99.444 C512.215524,99.2693333 510.337857,99.0728333 508.241857,98.8545 C506.145857,98.6361667 504.049857,98.527 501.953857,98.527 C497.936524,98.527 494.159357,99.0728333 490.622357,100.1645 C487.085357,101.256167 484.006857,102.85 481.386857,104.946 C478.766857,107.042 476.714524,109.662 475.229857,112.806 C473.745191,115.95 473.002857,119.574333 473.002857,123.679 C473.002857,127.347 473.614191,130.600167 474.836857,133.4385 C476.059524,136.276833 477.609691,138.831333 479.487357,141.102 C481.365024,143.372667 483.373691,145.381333 485.513357,147.128 C487.653024,148.874667 489.661691,150.4685 491.539357,151.9095 C493.417024,153.3505 494.967191,154.6605 496.189857,155.8395 C497.412524,157.0185 498.023857,158.175667 498.023857,159.311 C498.023857,162.280333 496.015191,163.765 491.997857,163.765 C489.727191,163.765 487.478357,163.634 485.251357,163.372 C483.024357,163.11 481.037524,162.760667 479.290857,162.324 C477.194857,161.974667 475.186191,161.494333 473.264857,160.883 L473.264857,160.883 L473.264857,187.083 C475.360857,187.694333 477.675191,188.218333 480.207857,188.655 C482.391191,189.091667 484.902024,189.462833 487.740357,189.7685 C490.578691,190.074167 493.657191,190.227 496.975857,190.227 Z M575.037822,188 L575.037822,123.548 L591.150822,123.548 L591.150822,100.623 L530.104822,100.623 L530.104822,123.548 L546.217822,123.548 L546.217822,188 L575.037822,188 Z M639.737786,190.227 C646.025786,190.227 651.964453,189.026167 657.553786,186.6245 C663.143119,184.222833 668.011953,180.947833 672.160286,176.7995 C676.308619,172.651167 679.583619,167.782333 681.985286,162.193 C684.386953,156.603667 685.587786,150.665 685.587786,144.377 C685.587786,138.089 684.386953,132.150333 681.985286,126.561 C679.583619,120.971667 676.308619,116.102833 672.160286,111.9545 C668.011953,107.806167 663.143119,104.531167 657.553786,102.1295 C651.964453,99.7278333 646.025786,98.527 639.737786,98.527 C633.449786,98.527 627.511119,99.7278333 621.921786,102.1295 C616.332453,104.531167 611.463619,107.806167 607.315286,111.9545 C603.166953,116.102833 599.891953,120.971667 597.490286,126.561 C595.088619,132.150333 593.887786,138.089 593.887786,144.377 C593.887786,150.665 595.088619,156.603667 597.490286,162.193 C599.891953,167.782333 603.166953,172.651167 607.315286,176.7995 C611.463619,180.947833 616.332453,184.222833 621.921786,186.6245 C627.511119,189.026167 633.449786,190.227 639.737786,190.227 Z M639.737786,162.717 C637.205119,162.717 634.825286,162.236667 632.598286,161.276 C630.371286,160.315333 628.428119,159.005333 626.768786,157.346 C625.109453,155.686667 623.799453,153.7435 622.838786,151.5165 C621.878119,149.2895 621.397786,146.909667 621.397786,144.377 C621.397786,141.844333 621.878119,139.4645 622.838786,137.2375 C623.799453,135.0105 625.109453,133.067333 626.768786,131.408 C628.428119,129.748667 630.371286,128.438667 632.598286,127.478 C634.825286,126.517333 637.205119,126.037 639.737786,126.037 C642.270453,126.037 644.650286,126.517333 646.877286,127.478 C649.104286,128.438667 651.047453,129.748667 652.706786,131.408 C654.366119,133.067333 655.676119,135.0105 656.636786,137.2375 C657.597453,139.4645 658.077786,141.844333 658.077786,144.377 C658.077786,146.909667 657.597453,149.2895 656.636786,151.5165 C655.676119,153.7435 654.366119,155.686667 652.706786,157.346 C651.047453,159.005333 649.104286,160.315333 646.877286,161.276 C644.650286,162.236667 642.270453,162.717 639.737786,162.717 Z M714.26275,190.227 C719.76475,190.227 724.524417,189.5065 728.54175,188.0655 C732.559084,186.6245 735.855917,184.6595 738.43225,182.1705 C741.008584,179.6815 742.908084,176.755833 744.13075,173.3935 C745.353417,170.031167 745.96475,166.428667 745.96475,162.586 C745.96475,158.918 745.37525,155.599333 744.19625,152.63 C743.01725,149.660667 741.57625,146.997 739.87325,144.639 C738.17025,142.281 736.292584,140.185 734.24025,138.351 C732.187917,136.517 730.31025,134.901333 728.60725,133.504 C726.90425,132.106667 725.46325,130.884 724.28425,129.836 C723.10525,128.788 722.51575,127.914667 722.51575,127.216 C722.51575,126.43 722.77775,125.818667 723.30175,125.382 C723.82575,124.945333 724.437084,124.639667 725.13575,124.465 C725.834417,124.290333 726.57675,124.181167 727.36275,124.1375 C728.14875,124.093833 728.80375,124.072 729.32775,124.072 C730.288417,124.072 731.205417,124.115667 732.07875,124.203 C732.952084,124.290333 733.738084,124.377667 734.43675,124.465 C735.310084,124.552333 736.096084,124.639667 736.79475,124.727 L736.79475,124.727 L736.79475,100.23 C734.96075,99.968 733.083084,99.706 731.16175,99.444 C729.502417,99.2693333 727.62475,99.0728333 725.52875,98.8545 C723.43275,98.6361667 721.33675,98.527 719.24075,98.527 C715.223417,98.527 711.44625,99.0728333 707.90925,100.1645 C704.37225,101.256167 701.29375,102.85 698.67375,104.946 C696.05375,107.042 694.001417,109.662 692.51675,112.806 C691.032084,115.95 690.28975,119.574333 690.28975,123.679 C690.28975,127.347 690.901084,130.600167 692.12375,133.4385 C693.346417,136.276833 694.896584,138.831333 696.77425,141.102 C698.651917,143.372667 700.660584,145.381333 702.80025,147.128 C704.939917,148.874667 706.948584,150.4685 708.82625,151.9095 C710.703917,153.3505 712.254084,154.6605 713.47675,155.8395 C714.699417,157.0185 715.31075,158.175667 715.31075,159.311 C715.31075,162.280333 713.302084,163.765 709.28475,163.765 C707.014084,163.765 704.76525,163.634 702.53825,163.372 C700.31125,163.11 698.324417,162.760667 696.57775,162.324 C694.48175,161.974667 692.473084,161.494333 690.55175,160.883 L690.55175,160.883 L690.55175,187.083 C692.64775,187.694333 694.962084,188.218333 697.49475,188.655 C699.678084,189.091667 702.188917,189.462833 705.02725,189.7685 C707.865584,190.074167 710.944084,190.227 714.26275,190.227 Z" id="Adrastos"></path>
        </g>
    </g>
</svg>